<svg id="Layer_2" data-name="Layer 2" xmlns="http://www.w3.org/2000/svg" viewBox="0 0 500 180"><defs><style>.cls-1{fill:#231f20;}.cls-2{fill:#ee3a43;}.cls-3{fill:#fff;}</style></defs><title>Artboard 1</title><path class="cls-1" d="M415.09,1.74S462.31,25,487.37,80.52c16.74,37.09,7.85,62.53-3,75-9.93,11.42-21.38,17.33-40.88,17.33a48.11,48.11,0,0,1-44.67-31.13c-6.26-16.23-7.51-42.34,11.91-66.86,13.34-16.85,20-29.24,19.49-41.69S415.09,1.74,415.09,1.74Z"/><path class="cls-2" d="M29.18,95.51l9.14,3.74-16,20.51,16.56,23.9-9.79,3.53L11.83,120.56h-.14V146l-9.5.58v-50l9.5-1.15V118.4h.14Z"/><path class="cls-2" d="M72.87,142.37a27.24,27.24,0,0,1-15.33,4.82c-10.8,0-20.3-8.42-20.3-19.43s9.5-19.43,20.3-19.43A19.41,19.41,0,0,1,75,119.63l-25,15.55c.72,1.51,2.74,3.67,7.13,3.67,4.68,0,8.13-1.8,11.95-4.32Zm-9.43-24A8.68,8.68,0,0,0,57,116a11.16,11.16,0,0,0-10.87,10.29,14.44,14.44,0,0,0,.14,2.45Z"/><path class="cls-2" d="M78.77,146.62v-50l9.14-1.15V146Z"/><path class="cls-2" d="M94.89,146.62v-50L104,95.51V146Z"/><path class="cls-2" d="M144.47,142.37a27.24,27.24,0,0,1-15.33,4.82c-10.8,0-20.3-8.42-20.3-19.43s9.5-19.43,20.3-19.43a19.41,19.41,0,0,1,17.42,11.3l-25,15.55c.72,1.51,2.74,3.67,7.13,3.67,4.68,0,8.13-1.8,11.95-4.32Zm-9.43-24a8.68,8.68,0,0,0-6.41-2.38,11.16,11.16,0,0,0-10.87,10.29,14.44,14.44,0,0,0,.14,2.45Z"/><path class="cls-2" d="M158.94,115.24h.14c3.17-5.69,7.27-6.84,13.6-6.91L169.52,118c-7,0-10.08,4.1-10.08,10.44V146l-9.14.58V109.48l8.64-.86Z"/><path class="cls-2" d="M172,123.8h18v7.92H172Z"/><path class="cls-2" d="M226.31,96.67l9.5-1.15V146l-9.5.58V125.1h-20V146l-9.5.58v-50l9.5-1.15V116h20Z"/><path class="cls-2" d="M276.05,142.37a27.24,27.24,0,0,1-15.33,4.82c-10.8,0-20.3-8.42-20.3-19.43s9.5-19.43,20.3-19.43a19.41,19.41,0,0,1,17.42,11.3l-25,15.55c.72,1.51,2.74,3.67,7.13,3.67,4.68,0,8.13-1.8,11.95-4.32Zm-9.43-24a8.68,8.68,0,0,0-6.41-2.38,11.16,11.16,0,0,0-10.87,10.29,14.35,14.35,0,0,0,.14,2.45Z"/><path class="cls-2" d="M286.1,109.33a57.86,57.86,0,0,1,10.58-1c6.55,0,13.75,2.88,13.75,10.29V146l-8.35.86v-3.17a14.12,14.12,0,0,1-9.14,3.46c-7.77,0-13.82-4.53-13.82-12.88a12.58,12.58,0,0,1,12.38-12.45,19.71,19.71,0,0,1,10.08,2.45,23.77,23.77,0,0,0,.22-2.45c0-5-3.6-5.9-7.85-5.9a28.39,28.39,0,0,0-10.37,2.16ZM295,139.57c3.24,0,6.69-1.94,6.69-5.25s-3.46-5.26-6.69-5.26-6.7,2-6.7,5.26S291.72,139.57,295,139.57Z"/><path class="cls-2" d="M326,115.24h.14c3.17-5.69,7.27-6.84,13.61-6.91L336.54,118c-7,0-10.08,4.1-10.08,10.44V146l-9.14.58V109.48l8.64-.86Z"/><path class="cls-2" d="M346.26,103.14l9.14-4.1v10.44h8.28v7.92h-8.28V133c0,3.53,1.51,5.83,6.84,5.83,1,0,2.16-.07,3.17-.14l-2.23,8.2a18.16,18.16,0,0,1-3.6.29c-7.7,0-13.31-4.1-13.31-12.24V117.4h-5.61l2-7.92h3.6Z"/><path class="cls-2" d="M371,103.14l9.14-4.1v10.44h8.28v7.92h-8.28V133c0,3.53,1.51,5.83,6.84,5.83,1,0,2.16-.07,3.17-.14l-2.23,8.2a18.16,18.16,0,0,1-3.6.29c-7.7,0-13.32-4.1-13.32-12.24V117.4h-5.61l2-7.92H371Z"/><path class="cls-3" d="M427.14,94.57a25.84,25.84,0,1,1-26.06,25.84A26,26,0,0,1,427.14,94.57Zm0,42A16.12,16.12,0,1,0,411,120.41,16.28,16.28,0,0,0,427.14,136.53Z"/><path class="cls-3" d="M469.54,98.74l-6.19,6.12-6.19-6.12,6.19-6.12Zm-10.94,9.79,9.14-.86v37.43l-9.14.58Z"/><path class="cls-3" d="M474.58,145.67v-50l9.14-1.15v50.53Z"/><path class="cls-1" d="M15.64,162.43q0,5.3-1.41,7.52t-4.74,2.23q-3.5,0-4.93-2.4t-1.41-8.33q0-5.34,1.4-7.55t4.79-2.23a5.54,5.54,0,0,1,4.48,1.72,7.35,7.35,0,0,1,1.4,3.28A28.47,28.47,0,0,1,15.64,162.43Zm-3.39.28a26.74,26.74,0,0,0-.56-6.89,2.23,2.23,0,0,0-2.28-1.71,2.24,2.24,0,0,0-2.3,1.57A22.92,22.92,0,0,0,6.55,162a21.14,21.14,0,0,0,.59,6.09,2.25,2.25,0,0,0,2.27,1.61,2.22,2.22,0,0,0,2.24-1.5A16.71,16.71,0,0,0,12.26,162.71Z"/><path class="cls-1" d="M20.11,152.83a2.12,2.12,0,0,1,1.4.49,1.48,1.48,0,0,1,0,2.37,2.32,2.32,0,0,1-2.86,0,1.51,1.51,0,0,1-.57-1.2,1.47,1.47,0,0,1,.59-1.17A2.31,2.31,0,0,1,20.11,152.83Zm-1.4,5.7h3v13.4h-3Z"/><path class="cls-1" d="M25,149.93h3v22H25Z"/><path class="cls-1" d="M44.51,158.8v2.32a4.27,4.27,0,0,0-2.28-.67,2.3,2.3,0,0,0-.75.12,2,2,0,0,0-.6.32,1.48,1.48,0,0,0-.4.48,1.24,1.24,0,0,0-.15.59q0,1,2.08,2.28a14.64,14.64,0,0,1,1.4,1,4.85,4.85,0,0,1,.85.88,3.36,3.36,0,0,1,.61,2.06A3.63,3.63,0,0,1,44,171.07a4.94,4.94,0,0,1-3.34,1.07,6,6,0,0,1-2.61-.63v-2.4a4.66,4.66,0,0,0,2.44.8q2,0,2-1.67a1.64,1.64,0,0,0-.37-1.07,3.19,3.19,0,0,0-.54-.51c-.25-.2-.56-.41-.92-.65a11.4,11.4,0,0,1-2.55-2,3.3,3.3,0,0,1-.65-2.06,3.35,3.35,0,0,1,1.2-2.65,4.72,4.72,0,0,1,3.16-1A6.39,6.39,0,0,1,44.51,158.8Z"/><path class="cls-1" d="M57.37,165.34q0,6.8-5.05,6.8t-5.05-6.9q0-6.93,5-6.93a5.67,5.67,0,0,1,2.26.41A3.73,3.73,0,0,1,56.15,160a6.06,6.06,0,0,1,.93,2.19A14.27,14.27,0,0,1,57.37,165.34Zm-3.08-.06a11,11,0,0,0-.42-3.68,1.5,1.5,0,0,0-1.49-1,1.55,1.55,0,0,0-1.51,1,10.72,10.72,0,0,0-.42,3.61,10.61,10.61,0,0,0,.42,3.6,1.55,1.55,0,0,0,1.51,1,1.49,1.49,0,0,0,1.48-1A9.67,9.67,0,0,0,54.3,165.28Z"/><path class="cls-1" d="M60.2,149.93h3v22h-3Z"/><path class="cls-1" d="M66.48,158.53h3v9a3.08,3.08,0,0,0,.44,1.77,1.64,1.64,0,0,0,1.38.53,1.8,1.8,0,0,0,1.41-.47,2.74,2.74,0,0,0,.4-1.71v-9.09h3v8a9.3,9.3,0,0,1-.5,3.76q-1,1.84-4.32,1.84a5.07,5.07,0,0,1-3.67-1.09,5.1,5.1,0,0,1-1.09-3.66Z"/><path class="cls-1" d="M79.91,154.77h3v3.76h1.62v2H82.88v11.44h-3V160.5H78.28v-2h1.63Z"/><path class="cls-1" d="M88.15,152.83a2.12,2.12,0,0,1,1.4.49,1.48,1.48,0,0,1,0,2.37,2.32,2.32,0,0,1-2.86,0,1.51,1.51,0,0,1-.57-1.2,1.47,1.47,0,0,1,.59-1.17A2.31,2.31,0,0,1,88.15,152.83Zm-1.4,5.7h3v13.4h-3Z"/><path class="cls-1" d="M102.6,165.34q0,6.8-5.05,6.8t-5.05-6.9q0-6.93,5-6.93a5.67,5.67,0,0,1,2.26.41,3.73,3.73,0,0,1,1.58,1.28,6.06,6.06,0,0,1,.93,2.19A14.27,14.27,0,0,1,102.6,165.34Zm-3.08-.06a11,11,0,0,0-.42-3.68,1.5,1.5,0,0,0-1.49-1,1.55,1.55,0,0,0-1.51,1,10.72,10.72,0,0,0-.42,3.61,10.61,10.61,0,0,0,.42,3.6,1.55,1.55,0,0,0,1.51,1,1.49,1.49,0,0,0,1.48-1A9.67,9.67,0,0,0,99.52,165.28Z"/><path class="cls-1" d="M105.4,158.53h3v1.54a3.9,3.9,0,0,1,3.29-1.76,3.09,3.09,0,0,1,2.8,1.28,5.75,5.75,0,0,1,.47,2.81v9.53h-3l0-9a3.57,3.57,0,0,0-.39-1.93,1.5,1.5,0,0,0-1.34-.57,2.19,2.19,0,0,0-.86.15,1.26,1.26,0,0,0-.57.48,2.39,2.39,0,0,0-.32.86,7.13,7.13,0,0,0-.1,1.31v8.66h-3Z"/><path class="cls-1" d="M124.41,158.8v2.32a4.27,4.27,0,0,0-2.28-.67,2.3,2.3,0,0,0-.75.12,2,2,0,0,0-.6.32,1.48,1.48,0,0,0-.4.48,1.24,1.24,0,0,0-.15.59q0,1,2.08,2.28a14.64,14.64,0,0,1,1.4,1,4.85,4.85,0,0,1,.85.88,3.36,3.36,0,0,1,.61,2.06,3.63,3.63,0,0,1-1.26,2.89,4.94,4.94,0,0,1-3.34,1.07,6,6,0,0,1-2.61-.63v-2.4a4.66,4.66,0,0,0,2.44.8q2,0,2-1.67a1.64,1.64,0,0,0-.37-1.07,3.19,3.19,0,0,0-.54-.51c-.25-.2-.56-.41-.92-.65a11.4,11.4,0,0,1-2.55-2,3.3,3.3,0,0,1-.65-2.06,3.35,3.35,0,0,1,1.2-2.65,4.72,4.72,0,0,1,3.16-1A6.39,6.39,0,0,1,124.41,158.8Z"/><path class="cls-1" d="M133.33,158.53h1.49v-4.68a5,5,0,0,1,.81-3.24,3.54,3.54,0,0,1,2.81-.95,7.07,7.07,0,0,1,2,.35v2.62a3.11,3.11,0,0,0-1.26-.32,1.35,1.35,0,0,0-1.08.38,2,2,0,0,0-.32,1.27v4.57h2.52v2h-2.52v11.44h-3V160.5h-1.49Z"/><path class="cls-1" d="M151.86,165.34q0,6.8-5.05,6.8t-5.05-6.9q0-6.93,5-6.93a5.67,5.67,0,0,1,2.26.41,3.73,3.73,0,0,1,1.58,1.28,6.06,6.06,0,0,1,.93,2.19A14.27,14.27,0,0,1,151.86,165.34Zm-3.08-.06a11,11,0,0,0-.42-3.68,1.5,1.5,0,0,0-1.49-1,1.55,1.55,0,0,0-1.51,1,10.72,10.72,0,0,0-.42,3.61,10.61,10.61,0,0,0,.42,3.6,1.55,1.55,0,0,0,1.51,1,1.49,1.49,0,0,0,1.48-1A9.67,9.67,0,0,0,148.78,165.28Z"/><path class="cls-1" d="M154.66,158.53h3v1.67a5.08,5.08,0,0,1,1.51-1.49,4.43,4.43,0,0,1,2-.49v2.59a4.36,4.36,0,0,0-.53,0,3.15,3.15,0,0,0-2.28.69,3.3,3.3,0,0,0-.67,2.36v8.12h-3Z"/><path class="cls-1" d="M170.43,154.77h3v3.76H175v2H173.4v11.44h-3V160.5H168.8v-2h1.63Z"/><path class="cls-1" d="M186.66,165.34q0,6.8-5.05,6.8t-5.05-6.9q0-6.93,5-6.93a5.67,5.67,0,0,1,2.26.41,3.73,3.73,0,0,1,1.58,1.28,6.06,6.06,0,0,1,.93,2.19A14.27,14.27,0,0,1,186.66,165.34Zm-3.08-.06a11,11,0,0,0-.42-3.68,1.5,1.5,0,0,0-1.49-1,1.55,1.55,0,0,0-1.51,1,10.72,10.72,0,0,0-.42,3.61,10.6,10.6,0,0,0,.42,3.6,1.55,1.55,0,0,0,1.51,1,1.49,1.49,0,0,0,1.48-1A9.67,9.67,0,0,0,183.58,165.28Z"/><path class="cls-1" d="M198.77,149.93v22h-3v-1.72a4.4,4.4,0,0,1-1.27,1.52,3.07,3.07,0,0,1-1.69.41,3.11,3.11,0,0,1-2.92-1.7,11.65,11.65,0,0,1-.93-5.36,17.25,17.25,0,0,1,.23-3,6.66,6.66,0,0,1,.71-2.11,3,3,0,0,1,1.22-1.22,3.72,3.72,0,0,1,1.77-.4,2.81,2.81,0,0,1,2.25.91,5.11,5.11,0,0,1,.64.83V149.93Zm-6.71,15.24a11.16,11.16,0,0,0,.42,3.69,1.54,1.54,0,0,0,1.52,1,1.51,1.51,0,0,0,1.44-1.09,14.56,14.56,0,0,0,0-7.19,1.51,1.51,0,0,0-1.44-1.09,1.55,1.55,0,0,0-1.51,1A9.88,9.88,0,0,0,192.05,165.17Z"/><path class="cls-1" d="M211.43,158.53v13.4h-3v-1.72a4.4,4.4,0,0,1-1.27,1.52,3,3,0,0,1-1.68.41,3.12,3.12,0,0,1-2.94-1.71,11.69,11.69,0,0,1-.93-5.36,10.75,10.75,0,0,1,.93-5.12,3.14,3.14,0,0,1,2.94-1.64,3.38,3.38,0,0,1,3,1.74v-1.52Zm-6.71,6.64a11.16,11.16,0,0,0,.42,3.69,1.54,1.54,0,0,0,1.52,1,1.51,1.51,0,0,0,1.44-1.09,14.56,14.56,0,0,0,0-7.19,1.51,1.51,0,0,0-1.44-1.09,1.55,1.55,0,0,0-1.51,1A9.88,9.88,0,0,0,204.71,165.17Z"/><path class="cls-1" d="M213.53,158.53h3.36l2.36,9.35,2.77-9.35h3l-6.57,18.89h-3.12l2.47-6.57Z"/><path class="cls-1" d="M242.91,158.53v13.4h-3v-1.72a4.38,4.38,0,0,1-1.27,1.52,3,3,0,0,1-1.68.41,3.11,3.11,0,0,1-2.94-1.71,11.69,11.69,0,0,1-.93-5.36,10.75,10.75,0,0,1,.93-5.12,3.14,3.14,0,0,1,2.94-1.64,3.38,3.38,0,0,1,3,1.74v-1.52Zm-6.71,6.64a11.1,11.1,0,0,0,.42,3.69,1.54,1.54,0,0,0,1.52,1,1.51,1.51,0,0,0,1.44-1.09,14.53,14.53,0,0,0,0-7.19,1.51,1.51,0,0,0-1.44-1.09,1.55,1.55,0,0,0-1.51,1A9.88,9.88,0,0,0,236.19,165.17Z"/><path class="cls-1" d="M246.24,158.53h3v1.54a3.9,3.9,0,0,1,3.29-1.76,3.09,3.09,0,0,1,2.8,1.28,5.75,5.75,0,0,1,.47,2.81v9.53h-3v-9a3.57,3.57,0,0,0-.39-1.93,1.5,1.5,0,0,0-1.34-.57,2.19,2.19,0,0,0-.86.15,1.27,1.27,0,0,0-.57.48,2.42,2.42,0,0,0-.32.86,7.22,7.22,0,0,0-.1,1.31v8.66h-3Z"/><path class="cls-1" d="M268.4,149.93v22h-3v-1.72a4.38,4.38,0,0,1-1.27,1.52,3.07,3.07,0,0,1-1.69.41,3.1,3.1,0,0,1-2.92-1.7,11.65,11.65,0,0,1-.93-5.36,17.25,17.25,0,0,1,.23-3,6.66,6.66,0,0,1,.71-2.11,3,3,0,0,1,1.22-1.22,3.72,3.72,0,0,1,1.77-.4,2.82,2.82,0,0,1,2.25.91,5.17,5.17,0,0,1,.64.83V149.93Zm-6.71,15.24a11.1,11.1,0,0,0,.42,3.69,1.54,1.54,0,0,0,1.52,1,1.51,1.51,0,0,0,1.44-1.09,14.53,14.53,0,0,0,0-7.19,1.51,1.51,0,0,0-1.44-1.09,1.55,1.55,0,0,0-1.51,1A9.88,9.88,0,0,0,261.68,165.17Z"/><path class="cls-1" d="M279,154.77h3v3.76h1.62v2H282v11.44h-3V160.5H277.4v-2H279Z"/><path class="cls-1" d="M295.26,165.34q0,6.8-5.05,6.8t-5.05-6.9q0-6.93,5-6.93a5.66,5.66,0,0,1,2.26.41A3.73,3.73,0,0,1,294,160a6,6,0,0,1,.93,2.19A14.26,14.26,0,0,1,295.26,165.34Zm-3.08-.06a11,11,0,0,0-.42-3.68,1.5,1.5,0,0,0-1.49-1,1.55,1.55,0,0,0-1.51,1,10.76,10.76,0,0,0-.42,3.61,10.64,10.64,0,0,0,.42,3.6,1.55,1.55,0,0,0,1.51,1,1.49,1.49,0,0,0,1.48-1A9.67,9.67,0,0,0,292.18,165.28Z"/><path class="cls-1" d="M298.07,158.53h3v1.66a3.74,3.74,0,0,1,3.26-1.88,3,3,0,0,1,3,1.88,3.75,3.75,0,0,1,3.36-1.88,4,4,0,0,1,2.59.74,2.7,2.7,0,0,1,.89,2.2v10.68h-3v-8.82a4.1,4.1,0,0,0-.34-2,1.38,1.38,0,0,0-1.27-.53,1.69,1.69,0,0,0-1.46.54,3.81,3.81,0,0,0-.37,2v8.82h-3.08v-8.82a7.14,7.14,0,0,0-.09-1.2,2,2,0,0,0-.29-.79,1.19,1.19,0,0,0-.53-.43,2.14,2.14,0,0,0-.81-.14,1.71,1.71,0,0,0-1.46.58,3.4,3.4,0,0,0-.43,2v8.82h-3Z"/><path class="cls-1" d="M327,165.34q0,6.8-5.05,6.8t-5.05-6.9q0-6.93,5-6.93a5.66,5.66,0,0,1,2.26.41,3.73,3.73,0,0,1,1.58,1.28,6,6,0,0,1,.93,2.19A14.26,14.26,0,0,1,327,165.34Zm-3.08-.06a11,11,0,0,0-.42-3.68,1.5,1.5,0,0,0-1.49-1,1.55,1.55,0,0,0-1.51,1,10.76,10.76,0,0,0-.42,3.61,10.64,10.64,0,0,0,.42,3.6,1.55,1.55,0,0,0,1.51,1,1.49,1.49,0,0,0,1.48-1A9.67,9.67,0,0,0,324,165.28Z"/><path class="cls-1" d="M329.85,158.53h3v1.67a5.09,5.09,0,0,1,1.51-1.49,4.44,4.44,0,0,1,2-.49v2.59a4.36,4.36,0,0,0-.53,0,3.15,3.15,0,0,0-2.28.69,3.3,3.3,0,0,0-.67,2.36v8.12h-3Z"/><path class="cls-1" d="M338.51,158.53h3v1.67a5.09,5.09,0,0,1,1.51-1.49,4.44,4.44,0,0,1,2-.49v2.59a4.36,4.36,0,0,0-.53,0,3.15,3.15,0,0,0-2.28.69,3.3,3.3,0,0,0-.67,2.36v8.12h-3Z"/><path class="cls-1" d="M356.67,165.34q0,6.8-5.05,6.8t-5.05-6.9q0-6.93,5-6.93a5.66,5.66,0,0,1,2.26.41,3.73,3.73,0,0,1,1.58,1.28,6,6,0,0,1,.93,2.19A14.26,14.26,0,0,1,356.67,165.34Zm-3.08-.06a11,11,0,0,0-.42-3.68,1.5,1.5,0,0,0-1.49-1,1.55,1.55,0,0,0-1.51,1,10.76,10.76,0,0,0-.42,3.61,10.64,10.64,0,0,0,.42,3.6,1.55,1.55,0,0,0,1.51,1,1.49,1.49,0,0,0,1.48-1A9.67,9.67,0,0,0,353.59,165.28Z"/><path class="cls-1" d="M357.91,158.53H361l.9,4.31q.26,1.3.47,2.5t.33,2.34l0,.47.06-.49c.08-.62.17-1.19.26-1.72s.19-1,.29-1.44l.25-1,1.1-4.95h2.16l1,4.95.34,1.55q.11.44.2,1.09t.19,1.55l.06.48a44.38,44.38,0,0,1,.79-4.68l1.1-4.95h2.92l-3.78,13.4h-2.05l-1.23-5.12q-.22-.93-.37-1.91t-.26-2.08c0-.09,0-.19,0-.31s0-.26,0-.43c-.06.79-.15,1.55-.26,2.29s-.25,1.47-.42,2.21l-1.24,5.35h-2.05Z"/><path class="cls-1" d="M376.31,168.93a2,2,0,0,1,1.32.48,1.42,1.42,0,0,1,0,2.25,2.17,2.17,0,0,1-1.35.45,2.27,2.27,0,0,1-.75-.12,2.1,2.1,0,0,1-.61-.34,1.53,1.53,0,0,1-.41-.51,1.37,1.37,0,0,1-.15-.63,1.42,1.42,0,0,1,.56-1.13A2.15,2.15,0,0,1,376.31,168.93Zm6.71,0a1.89,1.89,0,0,1,1.32.48,1.41,1.41,0,0,1,0,2.25,2.16,2.16,0,0,1-1.35.45,2.27,2.27,0,0,1-.75-.12,2.14,2.14,0,0,1-.61-.34,1.54,1.54,0,0,1-.41-.51,1.37,1.37,0,0,1-.15-.63,1.41,1.41,0,0,1,.58-1.13A2.12,2.12,0,0,1,383,168.93Zm6.71,0a2,2,0,0,1,1.34.48,1.42,1.42,0,0,1,.56,1.13,1.41,1.41,0,0,1-.58,1.13,2.24,2.24,0,0,1-2.7,0,1.43,1.43,0,0,1,0-2.27A2.12,2.12,0,0,1,389.73,168.93Z"/></svg>