<?xml version="1.0" encoding="utf-8"?>
<!-- Generator: Adobe Illustrator 20.0.0, SVG Export Plug-In . SVG Version: 6.00 Build 0)  -->
<svg version="1.1" id="Layer_1" xmlns="http://www.w3.org/2000/svg" xmlns:xlink="http://www.w3.org/1999/xlink" x="0px" y="0px"
	 viewBox="0 0 55 55" enable-background="new 0 0 55 55" xml:space="preserve">
<g>
	<image overflow="visible" opacity="0.75" width="84" height="84" xlink:href="6ECAD3E6.png"  transform="matrix(1 0 0 1 -6 -6)">
	</image>
	<g>
		<g>
			
				<ellipse transform="matrix(0.9757 -0.2192 0.2192 0.9757 -5.6516 7.0623)" fill="none" stroke="#FFFFFF" stroke-width="2" stroke-miterlimit="10" cx="29" cy="29" rx="25" ry="25"/>
		</g>
	</g>
</g>
<g>
	<g>
		<path fill="#FF0000" d="M29.7,21v1c6.5,0,12.2,4.6,13.6,10.9c0.8,3.6,0.2,7.4-1.8,10.6c-2,3.2-5.1,5.4-8.8,6.2
			c-1,0.2-2.1,0.3-3.1,0.3c-6.5,0-12.2-4.6-13.6-10.9c-0.8-3.6-0.2-7.4,1.8-10.6c2-3.2,5.1-5.4,8.8-6.2c1-0.2,2.1-0.3,3.1-0.3
			L29.7,21 M29.7,21c-1.1,0-2.2,0.1-3.3,0.4c-8.1,1.8-13.2,9.8-11.3,17.9c1.6,7,7.8,11.7,14.6,11.7c1.1,0,2.2-0.1,3.3-0.4
			c8.1-1.8,13.2-9.8,11.3-17.9C42.7,25.8,36.5,21,29.7,21L29.7,21z"/>
	</g>
</g>
<g>
	<g>
		<path fill="#00FFFF" d="M30,35.8l-0.2,0.5c-0.6,1.5-1.2,2.9-1.8,4.3l-0.2,0.4h0.7l0.1-0.3c0.6-1.4,1.3-2.2,2-2.5s2.6-0.4,5.7-0.4
			c0.8,0,1.4,0,2.1,0.1c-1.7,2.5-3.5,4.4-5.3,5.6s-3.7,1.8-5.8,1.8c-0.5,0-1.1-0.1-1.8-0.2c-0.8,1.5-1.6,3-2.5,4.4h0.7
			c0.7-1.1,1.2-1.6,1.7-1.6c0.4,0,1.1,0.5,2,1.5c1.5,1.6,3,2.4,4.5,2.4c1.8,0,3.3-0.9,4.5-2.8c1-1.5,1.4-2.8,1.4-3.9
			c0-1.2-0.4-2.1-1.3-2.6c0.2,0.8,0.3,1.6,0.3,2.3c0,1.6-0.3,2.9-1,3.8S34.4,50,33.4,50c-0.9,0-2-0.6-3-1.7c-0.8-0.8-1.6-1.5-2.3-2
			c2.3-0.4,4.1-1.2,5.7-2.3s3.2-3,4.9-5.5l0.8-1.2l1-1.4c0,0,0.1-0.1,0.2-0.3L30,35.8z"/>
	</g>
</g>
</svg>
